<svg id="color" enable-background="new 0 0 24 24" height="512" viewBox="0 0 24 24" width="512" xmlns="http://www.w3.org/2000/svg"><path d="m18 10.5c2.44 0 4.605 1.177 5.976 2.987l.024-.237v-10.5c0-1.517-1.233-2.75-2.75-2.75h-18.5c-1.517 0-2.75 1.233-2.75 2.75v10.5c0 1.517 1.233 2.75 2.75 2.75h8.029c.879-3.166 3.779-5.5 7.221-5.5z" fill="#4caf50"/><path d="m12 11c-1.654 0-3-1.346-3-3s1.346-3 3-3 3 1.346 3 3-1.346 3-3 3z" fill="#fafafa"/><path d="m12 0h-9.25c-1.517 0-2.75 1.233-2.75 2.75v10.5c0 1.517 1.233 2.75 2.75 2.75h8.029c.252-.908.671-1.749 1.221-2.485v-2.515c-1.654 0-3-1.346-3-3s1.346-3 3-3z" fill="#429846"/><path d="m12 5c-1.654 0-3 1.346-3 3s1.346 3 3 3z" fill="#dadada"/><path d="m6.25 4.5h-2.5c-.414 0-.75-.336-.75-.75s.336-.75.75-.75h2.5c.414 0 .75.336.75.75s-.336.75-.75.75z" fill="#388e3c"/><path d="m5 3h-1.25c-.414 0-.75.336-.75.75s.336.75.75.75h1.25z" fill="#317c34"/><path d="m18 12c-3.308 0-6 2.692-6 6s2.692 6 6 6 6-2.692 6-6-2.692-6-6-6z" fill="#2196f3"/><path d="m18 21.5c-.414 0-.75-.336-.75-.75v-5.5c0-.414.336-.75.75-.75s.75.336.75.75v5.5c0 .414-.336.75-.75.75z" fill="#fafafa"/><path d="m20.75 18.75h-5.5c-.414 0-.75-.336-.75-.75s.336-.75.75-.75h5.5c.414 0 .75.336.75.75s-.336.75-.75.75z" fill="#fafafa"/><path d="m18 12c-3.308 0-6 2.692-6 6s2.692 6 6 6v-2.5c-.414 0-.75-.336-.75-.75v-2h-2c-.414 0-.75-.336-.75-.75s.336-.75.75-.75h2v-2c0-.414.336-.75.75-.75z" fill="#1d83d4"/><g fill="#dadada"><path d="m18 18.75h-.75v2c0 .414.336.75.75.75zm0-4.25c-.414 0-.75.336-.75.75v2h.75z"/><path d="m18 17.25h-.75-2c-.414 0-.75.336-.75.75s.336.75.75.75h2 .75z"/></g></svg>