<svg enable-background="new 0 0 100 100" height="512" viewBox="0 0 100 100" width="512" xmlns="http://www.w3.org/2000/svg"><path d="m78.6517334 38.5509491h-57.3034687l-12.5101309 14.8364258v31.0854492c0 3.3139648 2.6862793 6 6 6h70.3237305c3.3137207 0 6-2.6860352 6-6v-31.0854492z" fill="#ffd25a"/><path d="m14.8380699 86.47332c-1.1030273 0-2-.8974609-2-2v-25.0859375c0-1.1025391.8969727-2 2-2h70.3237305c1.1030273 0 2 .8974609 2 2v25.0859375c0 1.1025391-.8969727 2-2 2z" fill="#ebc255"/><circle cx="35.636" cy="65.993" fill="#d6b24e" r="2.679"/><circle cx="64.364" cy="65.993" fill="#d6b24e" r="2.679"/><path d="m63.5159874 64.4213181h-27.0321045c-.8643799 0-1.5716553.7072754-1.5716553 1.5715332 0 .864502.7072754 1.5717773 1.5716553 1.5717773h27.0321045c.8644371 0 1.5716515-.7072754 1.5716515-1.5717773 0-.8642579-.7072144-1.5715332-1.5716515-1.5715332z" fill="#ba9a43"/><path d="m78.6517181 38.5510139h-57.3034381l-12.5101471 14.8361245h82.3237323z" fill="#d6b251"/><path d="m68.505287 12.051345h2.679913v41.335693h-2.679913z" fill="#ececec"/><path d="m42.1567764 9.5271749-11.3859443 11.3860941v32.4737702h38.4583091v-43.8598643z" fill="#e6e7e8"/><path d="m42.1567764 20.913269v-11.3860931l-11.3859462 11.3860931z" fill="#dad7dc"/><path d="m54.102757 12.527175h12.126388v14.261315h-12.126388z" fill="#509fd7"/><g fill="#dad7dc"><path d="m34.755173 29.840803h30.48963v1.047267h-30.48963z"/><path d="m34.755173 33.198921h30.48963v1.047267h-30.48963z"/><path d="m34.755173 36.557041h30.48963v1.047267h-30.48963z"/><path d="m34.755173 39.915161h30.48963v1.047267h-30.48963z"/><path d="m34.755173 43.273281h30.48963v1.047267h-30.48963z"/><path d="m34.755173 46.631401h30.48963v1.047267h-30.48963z"/><path d="m34.755173 49.989521h30.48963v1.047267h-30.48963z"/></g></svg>