<svg id="Layer_1" enable-background="new 0 0 512 512" height="512" viewBox="0 0 512 512" width="512" xmlns="http://www.w3.org/2000/svg"><g><g><path d="m316.368 96c-1.078 0-2.1.479-2.79 1.307l-11.155 13.386c-.69.828-1.712 1.307-2.79 1.307h-1.931c-1.078 0-2.1-.479-2.79-1.307l-11.155-13.386c-.69-.828-1.712-1.307-2.79-1.307h-1.931c-1.078 0-2.1.479-2.79 1.307l-11.155 13.386c-.69.828-1.712 1.307-2.79 1.307h-1.931c-1.078 0-2.1-.479-2.79-1.307l-11.155-13.386c-.69-.828-1.712-1.307-2.79-1.307-2.006 0-3.632 1.626-3.632 3.632v76.368h64c8.837 0 16-7.163 16-16v-60.368c-.003-2.006-1.629-3.632-3.635-3.632z" fill="#e6e6eb"/></g><g><path d="m288 160c0 8.837 7.163 16 16 16h-48v-32c0-8.837 7.163-16 16-16 8.837 0 16 7.163 16 16z" fill="#a5c3dc"/></g><g><path d="m496 352h-464c-8.837 0-16 7.163-16 16v64c0 8.837 7.163 16 16 16h448c8.837 0 16-7.163 16-16z" fill="#32283c"/></g><g><path d="m240 352h-208c-8.837 0-16 7.163-16 16v64c0 8.837 7.163 16 16 16h208c8.837 0 16-7.163 16-16v-64c0-8.837-7.163-16-16-16z" fill="#463c4b"/></g><g><path d="m176 192h304c8.837 0 16 7.163 16 16v112h-352v-96c0-17.673 14.327-32 32-32z" fill="#ff4646"/></g><g><path d="m416 192h64c8.837 0 16 7.163 16 16v112h-112v-96c0-17.673 14.327-32 32-32z" fill="#cd3232"/></g><g><path d="m48 320h448v32h-464v-16c0-8.837 7.163-16 16-16z" fill="#cd3232"/></g><g><path d="m48 320h192c8.837 0 16 7.163 16 16v16h-224v-16c0-8.837 7.163-16 16-16z" fill="#ff4646"/></g><g><circle cx="136" cy="400" fill="#e6e6eb" r="32"/></g><g><path d="m136 416c4.418 0 8-3.582 8-8v-16c0-4.418-3.582-8-8-8-4.418 0-8 3.582-8 8v16c0 4.418 3.582 8 8 8z" fill="#463c4b"/></g><g><path d="m360 304h-288c-4.418 0-8 3.582-8 8v8h304v-8c0-4.418-3.582-8-8-8z" fill="#a5c3dc"/></g><g><path d="m104 304h-32c-4.418 0-8 3.582-8 8v8h48v-8c0-4.418-3.582-8-8-8z" fill="#e6e6eb"/></g><g><path d="m168 304h-32c-4.418 0-8 3.582-8 8v8h48v-8c0-4.418-3.582-8-8-8z" fill="#e6e6eb"/></g><g><path d="m232 304h-32c-4.418 0-8 3.582-8 8v8h48v-8c0-4.418-3.582-8-8-8z" fill="#e6e6eb"/></g><g><path d="m280 304h-16c4.418 0 8 3.582 8 8v8h16v-8c0-4.418-3.582-8-8-8z" fill="#e6e6eb"/></g><g><path d="m328 304h-16c4.418 0 8 3.582 8 8v8h16v-8c0-4.418-3.582-8-8-8z" fill="#e6e6eb"/></g><g><path d="m296 288h64c4.418 0 8-3.582 8-8v-48c0-4.418-3.582-8-8-8h-64c-4.418 0-8 3.582-8 8v48c0 4.418 3.582 8 8 8z" fill="#463c4b"/></g><g><path d="m256 240h-80c-8.837 0-16 7.163-16 16 0 8.837 7.163 16 16 16h80c8.837 0 16-7.163 16-16 0-8.837-7.163-16-16-16z" fill="#cd3232"/></g><g><path d="m256 256h-80v-112c0-8.837 7.163-16 16-16h80c-8.837 0-16 7.163-16 16z" fill="#e6e6eb"/></g><g><path d="m384 160h96c8.837 0 16-7.163 16-16v-64c0-8.837-7.163-16-16-16h-96c-8.837 0-16 7.163-16 16v64c0 8.837 7.163 16 16 16z" fill="#cd3232"/></g><g><path d="m384 160h80c8.837 0 16-7.163 16-16v-64c0-8.837-7.163-16-16-16h-80c-8.837 0-16 7.163-16 16v64c0 8.837 7.163 16 16 16z" fill="#ff4646"/></g><g><path d="m416 160h32v32h-32z" fill="#32283c"/></g><g><path d="m416 192h16v-12c0-2.209-1.791-4-4-4h-12z" fill="#463c4b"/></g><g><path d="m456 144h-64c-4.418 0-8-3.582-8-8v-48c0-4.418 3.582-8 8-8h64c4.418 0 8 3.582 8 8v48c0 4.418-3.582 8-8 8z" fill="#463c4b"/></g><g><path d="m229.333 176h-29.333c-4.418 0-8-3.582-8-8 0-4.418 3.582-8 8-8h29.333c4.418 0 8 3.582 8 8 0 4.418-3.581 8-8 8z" fill="#a5c3dc"/></g><g><path d="m229.333 208h-29.333c-4.418 0-8-3.582-8-8 0-4.418 3.582-8 8-8h29.333c4.418 0 8 3.582 8 8 0 4.418-3.581 8-8 8z" fill="#a5c3dc"/></g><g><path d="m229.333 240h-29.333c-4.418 0-8-3.582-8-8 0-4.418 3.582-8 8-8h29.333c4.418 0 8 3.582 8 8 0 4.418-3.581 8-8 8z" fill="#a5c3dc"/></g></g></svg>