<svg height="482pt" viewBox="-81 0 482 482.39" width="482pt" xmlns="http://www.w3.org/2000/svg"><path d="m217.195312 8c18.628907 0 34.789063 12.855469 38.976563 31.007812 4.1875 18.152344-4.707031 36.789063-21.453125 44.949219-16.746094 8.160157-36.90625 3.683594-48.621094-10.800781s-11.882812-35.136719-.402344-49.804688c7.582032-9.691406 19.199219-15.351562 31.5-15.351562zm0 0" fill="#f8ec7d"/><path d="m224.195312 293.390625c0 8.285156-6.714843 15-15 15-8.285156 0-15-6.714844-15-15s6.714844-15 15-15c8.285157 0 15 6.714844 15 15zm0 0" fill="#f8ec7d"/><path d="m311.546875 123.390625v306.519531l-145.222656 43.480469v-306.519531zm-87.351563 170c0-8.285156-6.714843-15-15-15-8.285156 0-15 6.714844-15 15s6.714844 15 15 15c8.28125-.003906 14.996094-6.71875 15-15zm0 0" fill="#e48e66"/><g fill="#b56c55"><path d="m166.324219 482.390625c-4.96875 0-9-4.03125-9-9v-306.519531c0-3.976563 2.609375-7.480469 6.417969-8.625l145.222656-43.476563c2.722656-.816406 5.671875-.296875 7.953125 1.402344s3.628906 4.375 3.628906 7.21875v306.519531c0 3.976563-2.609375 7.480469-6.417969 8.621094l-145.222656 43.480469c-.835938.25-1.707031.378906-2.582031.378906zm9-308.820313v287.730469l127.222656-38.089843v-287.730469zm0 0"/><path d="m112.84375 214.21875c-4.96875 0-9-4.027344-9-9v-81.828125c0-4.972656 4.03125-9 9-9h198.703125c4.96875 0 9 4.027344 9 9 0 4.96875-4.03125 9-9 9h-189.703125v72.828125c0 4.972656-4.027344 9-9 9zm0 0"/><path d="m166.273438 438.910156h-53.429688c-4.96875 0-9-4.03125-9-9v-78.640625c0-4.96875 4.03125-9 9-9 4.972656 0 9 4.03125 9 9v69.640625h44.429688c4.972656 0 9 4.027344 9 9 0 4.96875-4.027344 9-9 9zm0 0"/></g><path d="m209.195312 317.390625c-13.253906 0-24-10.746094-24-24s10.746094-24 24-24c13.253907 0 24 10.746094 24 24-.015624 13.246094-10.75 23.984375-24 24zm0-30c-3.3125 0-6 2.6875-6 6s2.6875 6 6 6 6-2.6875 6-6c-.003906-3.3125-2.6875-5.996094-6-6zm0 0" fill="#e2d574"/><path d="m217.195312 96c-26.511718.003906-48.003906-21.488281-48-48 0-26.507812 21.488282-48 48-48 26.507813 0 48 21.492188 48 48s-21.492187 48-48 48zm0-80c-17.671874 0-32 14.328125-32 32s14.328126 32 32 32c17.671876 0 32-14.328125 32-32 .042969-8.5-3.3125-16.664062-9.324218-22.675781-6.011719-6.011719-14.175782-9.367188-22.675782-9.324219zm0 0" fill="#e2d574"/><path d="m224.757812 66.660156c-1.527343 0-3.023437-.4375-4.308593-1.265625l-11.140625-7.140625c-2.296875-1.46875-3.683594-4.007812-3.683594-6.734375v-22.167969c0-4.417968 3.582031-8 8-8s8 3.582032 8 8v17.792969l7.457031 4.78125c2.992188 1.917969 4.359375 5.578125 3.359375 8.988281-1 3.410157-4.128906 5.75-7.683594 5.746094zm0 0" fill="#e48e66"/><path d="m145.566406 281.546875c.183594-.265625.355469-.535156.511719-.816406.070313-.128907.132813-.261719.199219-.398438.109375-.226562.210937-.457031.300781-.691406.054687-.140625.105469-.28125.152344-.421875.101562-.308594.1875-.617188.257812-.933594.03125-.144531.050781-.289062.074219-.4375.042969-.246094.074219-.5.09375-.75.011719-.167968.023438-.332031.027344-.5 0-.070312.007812-.140625.007812-.210937 0-.183594-.015625-.363281-.027344-.546875-.007812-.136719-.011718-.273438-.023437-.414063-.039063-.347656-.097656-.695312-.175781-1.035156-.027344-.125-.0625-.246094-.09375-.367187-.085938-.316407-.1875-.625-.308594-.929688-.015625-.050781-.027344-.101562-.046875-.152344-.007813-.015625-.019531-.03125-.023437-.050781-.042969-.09375-.089844-.179687-.132813-.273437-.175781-.382813-.378906-.753907-.609375-1.109376-.03125-.054687-.0625-.109374-.097656-.160156-.117188-.167968-.242188-.328125-.363282-.488281-.058593-.074219-.117187-.15625-.179687-.226563-.117187-.144531-.246094-.277343-.371094-.414062-.078125-.082031-.15625-.167969-.238281-.25-.03125-.03125-.0625-.070312-.097656-.097656l-40.84375-40.855469c-3.515625-3.515625-9.214844-3.515625-12.730469 0-3.515625 3.511719-3.515625 9.210937 0 12.726563l25.644531 25.648437h-107.277344c-4.972656 0-9 4.027344-9 9 0 4.96875 4.027344 9 9 9h107.28125l-25.644531 25.644531c-3.515625 3.515625-3.515625 9.214844 0 12.730469 3.515625 3.511719 9.210938 3.511719 12.726563 0l41.011718-41.011719c.0625-.0625.113282-.136718.171876-.199218.191406-.199219.367187-.40625.539062-.625.097656-.128907.195312-.253907.285156-.382813zm0 0" fill="#e2d574"/></svg>