<svg height="482pt" viewBox="-81 0 482 482.39" width="482pt" xmlns="http://www.w3.org/2000/svg"><path d="m224.179688 293.390625c0 8.285156-6.714844 15-15 15-8.28125 0-15-6.714844-15-15s6.71875-15 15-15c8.285156 0 15 6.714844 15 15zm0 0" fill="#f8ec7d"/><path d="m257.179688 48c.003906 19.195312-13.625 35.691406-32.476563 39.304688-18.851563 3.613281-37.613281-6.675782-44.707031-24.511719-7.09375-17.835938-.519532-38.199219 15.664062-48.519531 16.1875-10.320313 37.421875-7.691407 50.601563 6.265624 7.027343 7.414063 10.9375 17.246094 10.917969 27.460938zm0 0" fill="#f8ec7d"/><path d="m311.53125 123.390625v306.519531l-145.21875 43.480469v-306.519531zm-87.351562 170c0-8.285156-6.714844-15-15-15-8.28125 0-15 6.714844-15 15s6.71875 15 15 15c8.285156-.003906 15-6.71875 15-15zm0 0" fill="#e48e66"/><g fill="#b56c55"><path d="m166.3125 482.390625c-4.972656 0-9-4.03125-9-9v-306.519531c0-3.976563 2.609375-7.480469 6.417969-8.625l145.21875-43.476563c2.726562-.816406 5.675781-.296875 7.957031 1.402344s3.625 4.375 3.625 7.21875v306.519531c0 3.976563-2.609375 7.480469-6.417969 8.621094l-145.222656 43.480469c-.835937.25-1.707031.378906-2.578125.378906zm9-308.820313v287.730469l127.21875-38.089843v-287.730469zm0 0"/><path d="m112.832031 214.21875c-4.972656 0-9-4.027344-9-9v-81.828125c0-4.972656 4.027344-9 9-9h198.699219c4.96875 0 9 4.027344 9 9 0 4.96875-4.03125 9-9 9h-189.699219v72.828125c0 4.972656-4.03125 9-9 9zm0 0"/><path d="m166.261719 438.910156h-53.429688c-4.972656 0-9-4.03125-9-9v-78.640625c0-4.96875 4.027344-9 9-9 4.96875 0 9 4.03125 9 9v69.640625h44.429688c4.96875 0 9 4.027344 9 9 0 4.96875-4.03125 9-9 9zm0 0"/></g><path d="m209.179688 317.390625c-13.253907 0-24-10.746094-24-24s10.746093-24 24-24c13.257812 0 24 10.746094 24 24-.011719 13.246094-10.75 23.984375-24 24zm0-30c-3.3125 0-6 2.6875-6 6s2.6875 6 6 6c3.316406 0 6-2.6875 6-6-.003907-3.3125-2.6875-5.996094-6-6zm0 0" fill="#e2d574"/><path d="m217.179688 96c-26.507813 0-48-21.492188-48-48s21.492187-48 48-48c26.511718 0 48 21.492188 48 48 .007812 26.511719-21.484376 48.007812-48 48zm0-80c-14.964844 0-27.929688 10.375-31.214844 24.976562-3.285156 14.597657 3.984375 29.527344 17.507812 35.9375 13.523438 6.410157 29.683594 2.59375 38.910156-9.1875 7.539063-9.640624 8.921876-22.738281 3.5625-33.738281-5.363281-11.003906-16.527343-17.984375-28.765624-17.988281zm0 0" fill="#e2d574"/><path d="m220.75 74.660156c-4.417969 0-8-3.582031-8-8v-17.800781l-7.449219-4.769531c-2.425781-1.535156-3.84375-4.246094-3.714843-7.113282.125-2.863281 1.773437-5.441406 4.324218-6.757812 2.546875-1.3125 5.605469-1.164062 8.015625.394531l11.136719 7.128907c2.296875 1.472656 3.6875 4.011718 3.6875 6.738281v22.179687c0 4.417969-3.582031 8-8 8zm0 0" fill="#e48e66"/><path d="m138.191406 267.390625h-107.277344l25.640626-25.648437c3.515624-3.511719 3.515624-9.210938 0-12.726563-3.515626-3.515625-9.214844-3.515625-12.730469 0l-40.742188 40.761719c-.070312.0625-.128906.132812-.195312.199218-.046875.050782-.097657.101563-.148438.152344-.160156.167969-.316406.335938-.464843.515625-.03125.035157-.054688.070313-.085938.105469-.542969.667969-.984375 1.40625-1.316406 2.199219-.039063.09375-.058594.191406-.097656.289062-.085938.238281-.167969.480469-.238282.726563-.046875.164062-.089844.324218-.125.488281-.054687.242187-.09375.488281-.125.738281-.039062.265625-.058594.53125-.070312.800782-.003906.132812-.019532.265624-.019532.398437 0 .054687.007813.105469.007813.160156 0 .199219.011719.398438.03125.589844.015625.207031.042969.410156.074219.613281.035156.222656.074218.445313.125.664063.058594.265625.128906.527343.214844.78125.050781.15625.109374.308593.167968.460937.085938.222656.183594.4375.285156.652344.074219.152344.148438.304688.230469.453125.152344.269531.3125.527344.488281.777344.09375.132812.191407.261719.292969.386719.167969.214843.34375.421874.53125.621093.0625.066407.113281.140625.175781.199219l41.011719 41.011719c3.515625 3.511719 9.210938 3.511719 12.726563 0 3.515625-3.515625 3.515625-9.214844 0-12.730469l-25.648438-25.640625h107.28125c4.96875 0 9-4.03125 9-9 0-4.972656-4.03125-9-9-9zm0 0" fill="#e2d574"/></svg>