<svg id="Layer_1" enable-background="new 0 0 512.418 512.418" height="512" viewBox="0 0 512.418 512.418" width="512" xmlns="http://www.w3.org/2000/svg"><g><g><g><circle cx="256.022" cy="256.37" fill="#d5e8ed" r="248.5"/><g fill="#a5ced9"><g><g><path d="m256.022 7.87-33.448 57.932h66.895z"/><path d="m256.022 504.87 33.447-57.932h-66.895z"/></g><g><path d="m504.522 256.37-57.933-33.447v66.894z"/><path d="m7.522 256.37 57.932 33.447v-66.894z"/></g></g><g><g><path d="m431.738 80.654-64.615 17.313 47.301 47.302z"/><path d="m80.305 432.086 64.615-17.314-47.301-47.301z"/></g><g><path d="m431.738 432.086-17.314-64.615-47.301 47.301z"/><path d="m80.305 80.654 17.314 64.615 47.301-47.302z"/></g></g></g><circle cx="256.022" cy="256.37" fill="#ffda33" r="193.5"/><path d="m256.022 62.87c-8.47 0-16.814.548-25 1.608 94.931 12.299 168.5 93.665 168.5 191.892s-73.569 179.592-168.5 191.892c8.186 1.061 16.53 1.608 25 1.608 106.696 0 193.5-86.804 193.5-193.5s-86.804-193.5-193.5-193.5z" fill="#ffc721"/><g><path d="m270.022 373.958h-29.699c-5.523 0-10-4.477-10-10v-165.477h-17.197c-7.702 0-12.513-8.341-8.656-15.007l22.965-39.699c1.787-3.09 5.086-4.993 8.656-4.993h33.932c5.523 0 10 4.477 10 10v215.176c-.001 5.523-4.479 10-10.001 10z" fill="#ffb31c"/></g></g></g><g><path d="m256.022 512.37c137.604 2.834 258.845-118.391 255.998-256.002 1.649-169.512-167.225-295.114-329.13-245.379-3.97 1.182-6.231 5.358-5.049 9.328s5.359 6.232 9.328 5.049c18.089-5.384 36.756-8.613 55.656-9.639l-24.997 43.295c-26.55 5.135-51.785 15.595-74.259 30.818l-48.392-12.966c16.81-15.074 35.72-27.779 56.243-37.682 3.731-1.8 5.295-6.284 3.496-10.014-1.8-3.731-6.284-5.295-10.014-3.496-243.281 123.104-161.477 481.661 111.12 486.688zm-160.834-76.508 48.386-12.965c22.043 14.932 47.194 25.607 74.262 30.833l24.991 43.286c-55.037-2.949-106.636-24.322-147.639-61.154zm-4.276-14.383 10.018-37.386c8.227 9.973 17.396 19.141 27.368 27.368zm145.815 34.972c12.823 1.227 25.766 1.227 38.589 0l-19.294 33.419zm32.489 40.566 24.991-43.286c27.068-5.227 52.219-15.901 74.262-30.833l48.386 12.965c-41.003 36.831-92.602 58.204-147.639 61.154zm114.529-85.556c9.972-8.227 19.141-17.396 27.368-27.368l10.018 37.386zm51.769 5.742-12.965-48.386c14.932-22.043 25.607-47.194 30.833-74.262l43.286-24.991c-2.949 55.037-24.322 106.636-61.154 147.639zm20.589-180.128 33.419 19.294-33.419 19.294c1.227-12.822 1.227-25.765 0-38.588zm-20.589-141.538c36.832 41.003 58.205 92.602 61.154 147.639l-43.286-24.991c-5.227-27.068-15.901-52.219-30.833-74.261zm-18.659-18.66-48.386 12.965c-22.043-14.932-47.194-25.607-74.262-30.833l-24.991-43.286c55.037 2.949 106.636 24.323 147.639 61.154zm4.276 14.383-10.018 37.386c-8.227-9.973-17.396-19.141-27.368-27.368zm-165.109-68.39 19.294 33.418c-12.825-1.227-25.768-1.226-38.593.007zm0 47.5c101.181 0 186 84.821 186 186 0 101.181-84.821 186-186 186-168.024-1.537-250.123-208.758-125.538-323.126 34.09-31.236 79.305-48.874 125.538-48.874zm-127.729 30.907c-2.699 2.227-5.348 4.53-7.942 6.907-6.987 6.402-13.471 13.238-19.425 20.449l-10.014-37.373zm-75.345 25.26c7.049-11.001 14.939-21.364 23.579-31.006l12.961 48.372c-15.167 22.384-25.677 47.614-30.826 74.281l-43.283 24.99c2.254-41.534 15.126-81.61 37.569-116.637zm2.992 149.127-33.418-19.294 33.42-19.295c-1.224 12.793-1.226 25.796-.002 38.589zm2.72 18.891c5.227 27.068 15.901 52.219 30.833 74.262l-12.965 48.386c-36.831-41.003-58.204-92.602-61.154-147.639z"/><path d="m213.125 205.981h9.698v157.977c0 9.649 7.851 17.5 17.5 17.5h29.699c9.649 0 17.5-7.851 17.5-17.5v-23.588c0-9.697-15-9.697-15 0v23.588c0 1.378-1.122 2.5-2.5 2.5h-29.699c-1.378 0-2.5-1.122-2.5-2.5v-165.477c0-4.142-3.358-7.5-7.5-7.5h-17.198c-2.166-.417-2.887-1.668-2.164-3.752l22.965-39.7c.445-.769 1.274-1.247 2.164-1.247h33.932c1.378 0 2.5 1.122 2.5 2.5v151.588c0 9.697 15 9.697 15 0v-151.588c0-9.649-7.851-17.5-17.5-17.5h-33.932c-6.227 0-12.031 3.348-15.148 8.737l-22.965 39.7c-6.625 11.452 2.204 26.262 15.148 26.262z"/><path d="m129.387 341.244c8.007 5.237 13.579 6.963 20.49 7.469v5.886c.344 9.931 14.659 9.923 15 0v-6.571c13.802-3.221 22.656-14.891 24.59-26.394 3.094-18.403-9.067-28.694-24.59-34.502v-28.057c1.735.544 4.61 2.031 5.966 3.09 0 0 6.846 4.871 10.513.205 4.825-6.141-.343-11.231-.343-11.231-.365-.337-6.337-5.719-16.136-7.469v-5.251c-.344-9.931-14.659-9.923-15 0v5.79c-10.522 2.563-18.721 11.198-20.733 21.873-1.77 9.391 1.263 18.465 7.915 23.682 3.296 2.585 7.342 4.954 12.819 7.432v36.461c-4.321-.468-7.355-1.744-12.279-4.965-8.115-5.311-16.327 7.244-8.212 12.552zm35.489-38.156c10.936 3.911 10.265 13.277 9.797 16.059-.855 5.087-4.178 10.469-9.797 13.103zm-18.562-25.127c-5.845-4.584-2.854-17.875 3.562-17.875v20.275c-1.187-.801-2.374-1.601-3.562-2.4z"/><path d="m316.841 279.636c4.07.732 7.977-1.972 8.713-6.049l5.413-29.993 8.954 30.349c2.454 8.316 14.473 8.217 16.863-.079l8.644-30.321 5.756 30.12c1.821 9.525 16.553 6.709 14.733-2.815l-10.681-55.884c-1.745-8.558-14.69-9.021-17.061-.699l-9.938 34.862-10.308-34.938c-2.503-8.528-15.428-7.577-17.071.958l-10.067 55.777c-.735 4.075 1.973 7.976 6.05 8.712z"/><path d="m348.362 196.408c5.861 0 11.723-2.231 16.185-6.693 20.785-20.785-11.604-53.138-32.37-32.37-14.411 14.349-3.916 39.198 16.185 39.063zm-5.579-28.457c7.763-5.66 18.705 3.608 11.157 11.157-3.076 3.076-8.081 3.076-11.157 0-3.075-3.076-3.075-8.081 0-11.157z"/><path d="m201.203 32.692c-9.652 0-9.668 15 0 15 9.651 0 9.667-15 0-15z"/><path d="m147.12 54.246c-9.652 0-9.668 15 0 15 9.651 0 9.667-15 0-15z"/><path d="m64.398 149.772c9.652 0 9.668-15 0-15-9.652 0-9.668 15 0 15z"/><path d="m41.397 188.255c-9.652 0-9.668 15 0 15 9.651 0 9.667-15 0-15z"/><path d="m39.844 303.689c-9.652 0-9.668 15 0 15 9.651 0 9.667-15 0-15z"/><path d="m61.398 357.772c-9.652 0-9.668 15 0 15 9.652 0 9.668-15 0-15z"/><path d="m141.923 440.493c-9.652 0-9.668 15 0 15 9.652 0 9.668-15 0-15z"/><path d="m195.407 463.495c-9.652 0-9.668 15 0 15 9.652 0 9.668-15 0-15z"/><path d="m310.84 465.048c-9.652 0-9.668 15 0 15 9.652 0 9.668-15 0-15z"/><path d="m364.923 458.493c9.652 0 9.668-15 0-15-9.651 0-9.667 15 0 15z"/><path d="m447.645 362.968c-9.652 0-9.668 15 0 15 9.652 0 9.668-15 0-15z"/><path d="m470.647 324.484c9.652 0 9.668-15 0-15-9.652 0-9.668 15 0 15z"/><path d="m472.199 209.051c9.652 0 9.668-15 0-15-9.651 0-9.667 15 0 15z"/><path d="m450.645 139.968c-9.652 0-9.668 15 0 15 9.652 0 9.668-15 0-15z"/><path d="m370.12 72.246c9.652 0 9.668-15 0-15-9.652 0-9.668 15 0 15z"/><path d="m316.636 49.245c9.652 0 9.668-15 0-15-9.652 0-9.668 15 0 15z"/></g></g></svg>