<svg height="512" viewBox="0 0 512 512" width="512" xmlns="http://www.w3.org/2000/svg"><g id="Flat"><path d="m456 80v408h-416v-408l208-48z" fill="#0093b9"/><path d="m104 168h288v320h-288z" fill="#e3e4e2"/><path d="m456 80v34.67l-208-50.21-208 50.21v-34.67l208-48z" fill="#0884a9"/><rect fill="#57c3c1" height="32" rx="16" transform="matrix(-1 0 0 -1 496 224)" width="64" x="216" y="96"/><path d="m480 72-232-56-232 56v32l232-56 232 56z" fill="#e3e4e2"/><path d="m104 168h288v136h-288z" fill="#c9c9c8"/><g fill="#b2b1b4"><path d="m104 192h288v16h-288z"/><path d="m104 224h288v16h-288z"/><path d="m104 256h288v16h-288z"/><path d="m104 288h288v16h-288z"/></g><path d="m304 488v-128h-144v-128h-144v256z" fill="#f8bc1e"/><path d="m208 360h48v48h-48z" fill="#f9da62"/><path d="m304 368h-12a12 12 0 0 0 -12 12v20.305a63.7 63.7 0 0 1 -63.695 63.695h-36.305a12 12 0 0 0 -12 12v12h136z" fill="#f5a922"/><path d="m264 448h16v16h-16z" fill="#f79726"/><path d="m64 360h48v48h-48z" fill="#f9da62"/><path d="m160 368h-12a12 12 0 0 0 -12 12v20.305a63.7 63.7 0 0 1 -63.695 63.695h-36.305a12 12 0 0 0 -12 12v12h136z" fill="#f5a922"/><path d="m120 448h16v16h-16z" fill="#f79726"/><path d="m64 232h48v48h-48z" fill="#f9da62"/><path d="m160 240h-12a12 12 0 0 0 -12 12v20.305a63.7 63.7 0 0 1 -63.695 63.695h-36.305a12 12 0 0 0 -12 12v12h136z" fill="#f5a922"/><path d="m120 320h16v16h-16z" fill="#f79726"/></g></svg>