<svg id="Capa_1" enable-background="new 0 0 512 512" height="512" viewBox="0 0 512 512" width="512" xmlns="http://www.w3.org/2000/svg"><g><g><path d="m488.852 343.347c7.873-24.028 12.148-49.687 12.148-76.347 0-135.31-109.69-245-245-245s-245 109.69-245 245c0 26.66 4.275 52.319 12.148 76.347z" fill="#9bd8f9"/></g><g><circle cx="256" cy="232" fill="#73c3f9" r="190"/></g><g><path d="m361 120h40v83.021h-40z" fill="#45304c"/></g><g><g><path d="m408.784 100h-55.567c-11.046 0-20 8.954-20 20 0 11.046 8.954 20 20 20h55.567c11.046 0 20-8.954 20-20 0-11.046-8.955-20-20-20z" fill="#deeeff"/></g><g><path d="m408.784 182h-55.567c-11.046 0-20 8.954-20 20 0 11.046 8.954 20 20 20h55.567c11.046 0 20-8.954 20-20 0-11.046-8.955-20-20-20z" fill="#deeeff"/></g></g><g><path d="m471 120h-180c-16.569 0-30-13.431-30-30v-60c0-16.569 13.431-30 30-30h180c16.569 0 30 13.431 30 30v60c0 16.569-13.431 30-30 30z" fill="#fff"/></g><g><path d="m291 105c-8.271 0-15-6.729-15-15v-60c0-8.271 6.729-15 15-15h180c8.271 0 15 6.729 15 15v60c0 8.271-6.729 15-15 15z" fill="#9bd8f9"/></g><g><path d="m336 90v-60c0-8.271 6.729-15 15-15h-60c-8.271 0-15 6.729-15 15v60c0 8.271 6.729 15 15 15h60c-8.271 0-15-6.729-15-15z" fill="#73c3f9"/></g><g><g><g><path d="m381 92.5c-11.795 0-21.392-9.596-21.392-21.392v-22.216c0-11.795 9.596-21.392 21.392-21.392s21.392 9.596 21.392 21.392v22.217c0 11.795-9.597 21.391-21.392 21.391zm0-50c-3.524 0-6.392 2.867-6.392 6.392v22.217c0 3.524 2.867 6.392 6.392 6.392s6.392-2.867 6.392-6.392v-22.217c0-3.525-2.868-6.392-6.392-6.392z" fill="#49b1f7"/></g></g><g><g><path d="m323.216 92.5c-11.795 0-21.392-9.596-21.392-21.392v-22.216c0-11.795 9.596-21.392 21.392-21.392s21.392 9.596 21.392 21.392v22.217c0 11.795-9.596 21.391-21.392 21.391zm0-50c-3.524 0-6.392 2.867-6.392 6.392v22.217c0 3.524 2.867 6.392 6.392 6.392s6.392-2.867 6.392-6.392v-22.217c0-3.525-2.867-6.392-6.392-6.392z" fill="#49b1f7"/></g></g><g><g><path d="m438.784 92.5c-11.795 0-21.392-9.596-21.392-21.392v-22.216c0-11.795 9.597-21.392 21.392-21.392s21.392 9.596 21.392 21.392v22.217c-.001 11.795-9.597 21.391-21.392 21.391zm0-50c-3.524 0-6.392 2.867-6.392 6.392v22.217c0 3.524 2.868 6.392 6.392 6.392s6.392-2.867 6.392-6.392v-22.217c-.001-3.525-2.868-6.392-6.392-6.392z" fill="#49b1f7"/></g></g></g><g><path d="m488.852 343.347-25.689-117.742c-3.007-13.78-15.206-23.605-29.31-23.605h-355.705c-14.104 0-26.304 9.825-29.31 23.605l-25.69 117.742c13.939 42.538 39.196 79.948 72.229 108.653l160.623 30 160.623-30c33.033-28.705 58.29-66.115 72.229-108.653z" fill="#6c5475"/></g><g><path d="m48.837 225.605-25.689 117.742c13.939 42.538 39.196 79.948 72.229 108.653l117.839 22.009v-22.009c-28.075 0-50.833-22.759-50.833-50.833 0-28.075 22.759-50.833 50.833-50.833v-148.334h-135.068c-14.104 0-26.304 9.825-29.311 23.605z" fill="#543e5b"/></g><g><path d="m90.716 350.333h145c4.142 0 7.5-3.358 7.5-7.5 0-4.142-3.358-7.5-7.5-7.5h-145c-4.142 0-7.5 3.358-7.5 7.5 0 4.142 3.358 7.5 7.5 7.5z" fill="#45304c"/></g><g><path d="m213.216 149.764c0-7.933-8.836-12.773-15.444-8.384-2.375 1.577-5.211 2.787-9.558 2.787-12.501 0-12.501-10-25.002-10-12.499 0-12.499 10-24.999 10-4.344 0-7.178-1.208-9.552-2.784-6.609-4.388-15.445.45-15.445 8.383v200.568h100z" fill="#fff"/></g><g><g><path d="m213.216 252c0 27.614-22.386 50-50 50-27.614 0-50-22.386-50-50v98.333h100z" fill="#deeeff"/></g></g><g><path d="m95.377 452c43.008 37.373 99.172 60 160.623 60s117.615-22.627 160.623-60z" fill="#fff"/></g><g><path d="m213.216 452 9.187 23.624c1.495 3.844 5.196 6.376 9.32 6.376h48.553c4.124 0 7.825-2.532 9.32-6.376l9.188-23.624z" fill="#deeeff"/></g><g><path d="m418.784 282h-140c-5.523 0-10-4.477-10-10v-40c0-5.523 4.477-10 10-10h140c5.523 0 10 4.477 10 10v40c0 5.523-4.478 10-10 10z" fill="#9bd8f9"/></g><g><path d="m308.784 272v-40c0-5.523 4.477-10 10-10h-40c-5.523 0-10 4.477-10 10v40c0 5.523 4.477 10 10 10h40c-5.523 0-10-4.477-10-10z" fill="#73c3f9"/></g><g><path d="m278.784 302h23.333c5.523 0 10 4.477 10 10v13.333c0 5.523-4.477 10-10 10h-23.333c-5.523 0-10-4.477-10-10v-13.333c0-5.523 4.477-10 10-10z" fill="#ff7186"/></g><g><path d="m288.784 325.333v-13.333c0-5.523 4.477-10 10-10h-20c-5.523 0-10 4.477-10 10v13.333c0 5.523 4.477 10 10 10h20c-5.523 0-10-4.477-10-10z" fill="#ff4155"/></g><g><path d="m337.117 302h23.333c5.523 0 10 4.477 10 10v13.333c0 5.523-4.477 10-10 10h-23.333c-5.523 0-10-4.477-10-10v-13.333c0-5.523 4.477-10 10-10z" fill="#ffdd40"/></g><g><path d="m395.45 302h23.333c5.523 0 10 4.477 10 10v13.333c0 5.523-4.477 10-10 10h-23.333c-5.523 0-10-4.477-10-10v-13.333c0-5.523 4.477-10 10-10z" fill="#afc728"/></g><g><path d="m278.784 350.333h23.333c5.523 0 10 4.477 10 10v13.333c0 5.523-4.477 10-10 10h-23.333c-5.523 0-10-4.477-10-10v-13.333c0-5.523 4.477-10 10-10z" fill="#fff"/></g><g><path d="m337.117 350.333h23.333c5.523 0 10 4.477 10 10v13.333c0 5.523-4.477 10-10 10h-23.333c-5.523 0-10-4.477-10-10v-13.333c0-5.523 4.477-10 10-10z" fill="#fff"/></g><g><path d="m395.45 350.333h23.333c5.523 0 10 4.477 10 10v13.333c0 5.523-4.477 10-10 10h-23.333c-5.523 0-10-4.477-10-10v-13.333c0-5.523 4.477-10 10-10z" fill="#fff"/></g><g><path d="m278.784 398.667h23.333c5.523 0 10 4.477 10 10v13.333c0 5.523-4.477 10-10 10h-23.333c-5.523 0-10-4.477-10-10v-13.333c0-5.523 4.477-10 10-10z" fill="#fff"/></g><g><path d="m337.117 398.667h23.333c5.523 0 10 4.477 10 10v13.333c0 5.523-4.477 10-10 10h-23.333c-5.523 0-10-4.477-10-10v-13.333c0-5.523 4.477-10 10-10z" fill="#fff"/></g><g><path d="m395.45 398.667h23.333c5.523 0 10 4.477 10 10v13.333c0 5.523-4.477 10-10 10h-23.333c-5.523 0-10-4.477-10-10v-13.333c0-5.523 4.477-10 10-10z" fill="#fff"/></g><g><path d="m288.784 373.667v-13.333c0-5.523 4.477-10 10-10h-20c-5.523 0-10 4.477-10 10v13.333c0 5.523 4.477 10 10 10h20c-5.523 0-10-4.477-10-10z" fill="#deeeff"/></g><g><path d="m288.784 422v-13.333c0-5.523 4.477-10 10-10h-20c-5.523 0-10 4.477-10 10v13.333c0 5.523 4.477 10 10 10h20c-5.523 0-10-4.477-10-10z" fill="#deeeff"/></g><g><path d="m347.117 325.333v-13.333c0-5.523 4.477-10 10-10h-20c-5.523 0-10 4.477-10 10v13.333c0 5.523 4.477 10 10 10h20c-5.523 0-10-4.477-10-10z" fill="#ffc839"/></g><g><path d="m347.117 373.667v-13.333c0-5.523 4.477-10 10-10h-20c-5.523 0-10 4.477-10 10v13.333c0 5.523 4.477 10 10 10h20c-5.523 0-10-4.477-10-10z" fill="#deeeff"/></g><g><path d="m347.117 422v-13.333c0-5.523 4.477-10 10-10h-20c-5.523 0-10 4.477-10 10v13.333c0 5.523 4.477 10 10 10h20c-5.523 0-10-4.477-10-10z" fill="#deeeff"/></g><g><path d="m405.45 325.333v-13.333c0-5.523 4.477-10 10-10h-20c-5.523 0-10 4.477-10 10v13.333c0 5.523 4.477 10 10 10h20c-5.523 0-10-4.477-10-10z" fill="#91af12"/></g><g><path d="m405.45 373.667v-13.333c0-5.523 4.477-10 10-10h-20c-5.523 0-10 4.477-10 10v13.333c0 5.523 4.477 10 10 10h20c-5.523 0-10-4.477-10-10z" fill="#deeeff"/></g><g><path d="m405.45 422v-13.333c0-5.523 4.477-10 10-10h-20c-5.523 0-10 4.477-10 10v13.333c0 5.523 4.477 10 10 10h20c-5.523 0-10-4.477-10-10z" fill="#deeeff"/></g><g><g><path d="m183.216 189.75h-40c-4.142 0-7.5-3.358-7.5-7.5s3.358-7.5 7.5-7.5h40c4.142 0 7.5 3.358 7.5 7.5s-3.358 7.5-7.5 7.5z" fill="#d3dcfb"/></g><g><path d="m183.216 219.75h-40c-4.142 0-7.5-3.358-7.5-7.5s3.358-7.5 7.5-7.5h40c4.142 0 7.5 3.358 7.5 7.5s-3.358 7.5-7.5 7.5z" fill="#d3dcfb"/></g><g><path d="m183.216 249.75h-40c-4.142 0-7.5-3.358-7.5-7.5s3.358-7.5 7.5-7.5h40c4.142 0 7.5 3.358 7.5 7.5s-3.358 7.5-7.5 7.5z" fill="#d3dcfb"/></g><g><path d="m183.216 279.75h-40c-4.142 0-7.5-3.358-7.5-7.5s3.358-7.5 7.5-7.5h40c4.142 0 7.5 3.358 7.5 7.5s-3.358 7.5-7.5 7.5z" fill="#d3dcfb"/></g><g><path d="m183.216 309.75h-40c-4.142 0-7.5-3.358-7.5-7.5s3.358-7.5 7.5-7.5h40c4.142 0 7.5 3.358 7.5 7.5s-3.358 7.5-7.5 7.5z" fill="#d3dcfb"/></g></g></g></svg>