<svg id="Capa_1" enable-background="new 0 0 512 512" height="512" viewBox="0 0 512 512" width="512" xmlns="http://www.w3.org/2000/svg"><g><g><g><path d="m388.063 256.08-.002.998c-.089 48.427-26.691 92.874-69.425 115.995v1.879h48.364l1.436-1c30.951-29.444 50.229-70.918 50.229-116.872l-1.665-1z" fill="#ef4424"/></g><g fill="#01d0fb"><path d="m132.758 308.387 1.783.305-.69-1.672c-6.58-15.955-9.916-32.84-9.916-50.187 0-48.101 26.262-92.453 68.537-115.749v-1.876h-46.472l-2.436 1c-30.951 29.444-50.229 70.918-50.229 116.872 0 18.259 3.047 35.81 8.657 52.182 5.648-1.304 11.519-2.017 17.557-2.017 4.345.001 8.789.384 13.209 1.142z"/><path d="m509.372 391.83-62.866-36.296c-3.504-2.023-7.885.506-7.885 4.552v13.866h-121.682c-18.247 9.54-38.977 14.945-60.939 14.945-20.124 0-39.461-4.434-57.475-13.177l-1.627-.79.196 1.798c.316 2.894.477 5.766.477 8.54 0 7.486-1.082 14.72-3.059 21.578 18.971 7.708 39.728 11.967 61.488 11.967h182.621v13.866c0 4.047 4.381 6.576 7.885 4.552l62.866-36.296c3.504-2.024 3.504-7.082 0-9.105z"/></g><g><path d="m110.745 257.08c0-45.954 19.278-87.428 50.229-116.872h-17.41c-30.951 29.444-50.229 70.918-50.229 116.872 0 18.259 3.047 35.81 8.657 52.182 5.394-1.246 10.996-1.937 16.749-1.996-5.183-15.8-7.996-32.665-7.996-50.186z" fill="#01c0fa"/></g><g fill="#fd5426"><path d="m256 124.768c21.264 0 41.367 5.059 59.179 14.025-.618-3.932-.95-7.958-.95-12.061 0-6.809.882-13.414 2.528-19.714-18.773-7.521-39.276-11.67-60.757-11.67h-182.621v-13.865c0-4.047-4.381-6.576-7.885-4.552l-62.866 36.295c-3.504 2.023-3.504 7.082 0 9.105l62.866 36.296c3.504 2.023 7.885-.506 7.885-4.552v-13.865h120.712c18.477-9.85 39.551-15.442 61.909-15.442z"/><path d="m388.064 256.833c0 .083-.003.165-.003.247h30.604c0-19.021-3.313-37.27-9.379-54.222-5.488 1.227-11.184 1.896-17.036 1.896-5.339 0-10.55-.551-15.59-1.581 7.325 16.405 11.404 34.564 11.404 53.66z"/></g><g><g><path d="m19.626 105.348c-.544-.314-.994-.708-1.369-1.145l-15.629 9.024c-3.504 2.023-3.504 7.081 0 9.105l62.866 36.296c3.504 2.023 7.885-.506 7.885-4.552v-13.865h6.627z" fill="#ef4424"/></g></g><g><path d="m316.92 147.02c-18.043-10.031-38.812-15.752-60.92-15.752-69.347 0-125.565 56.217-125.565 125.565 0 19.285 4.353 37.551 12.121 53.878 26.041 8.053 46.282 29.404 52.786 56.081 17.982 9.941 38.657 15.606 60.658 15.606 69.348 0 125.565-56.217 125.565-125.565 0-20.038-4.702-38.976-13.05-55.782-25.098-8.035-44.698-28.45-51.595-54.031z" fill="#fef1da"/></g><g fill="#fdd79b"><path d="m153.234 314.901c-9.733-17.157-15.299-36.974-15.299-58.068 0-65.101 52.964-118.065 118.065-118.065 23.96 0 46.272 7.181 64.908 19.495-2.875-6.48-4.893-13.417-5.908-20.675-17.791-8.839-37.824-13.82-59-13.82-73.372 0-133.065 59.693-133.065 133.065 0 18.312 3.719 35.772 10.44 51.664 6.982 1.255 13.651 3.42 19.859 6.404z"/><path d="m357.472 196.545c10.531 17.658 16.592 38.277 16.592 60.288 0 65.101-52.964 118.064-118.064 118.064-23.656 0-45.705-6.998-64.197-19.026 2.599 6.365 4.376 13.144 5.209 20.212 17.788 8.835 37.816 13.813 58.987 13.813 73.372 0 133.064-59.692 133.064-133.064 0-18.995-4.01-37.069-11.213-53.433-7.185-1.346-14.026-3.677-20.378-6.854z"/></g><g><g><circle cx="256" cy="256.833" fill="#fac600" r="88.049"/></g><g><path d="m202.493 256.833c0-42.716 30.422-78.317 70.778-86.345-5.586-1.111-11.359-1.704-17.271-1.704-48.628 0-88.049 39.421-88.049 88.049s39.421 88.049 88.049 88.049c5.912 0 11.685-.593 17.271-1.704-40.357-8.028-70.778-43.629-70.778-86.345z" fill="#e8b800"/></g><g><path d="m256 352.382c-52.686 0-95.549-42.863-95.549-95.549 0-52.687 42.863-95.55 95.549-95.55 52.687 0 95.55 42.863 95.55 95.55 0 52.686-42.863 95.549-95.55 95.549zm0-176.099c-44.415 0-80.549 36.134-80.549 80.55 0 44.415 36.134 80.549 80.549 80.549s80.55-36.134 80.55-80.549c0-44.416-36.135-80.55-80.55-80.55z" fill="#fedf30"/></g><path d="m266.118 249.333h-20.237c-5.96 0-10.809-4.849-10.809-10.81s4.849-10.81 10.809-10.81h35.656c4.143 0 7.5-3.358 7.5-7.5s-3.357-7.5-7.5-7.5h-18.037v-11.292c0-4.142-3.357-7.5-7.5-7.5-4.142 0-7.5 3.358-7.5 7.5v11.292h-2.619c-14.231 0-25.809 11.578-25.809 25.81s11.578 25.81 25.809 25.81h20.237c5.96 0 10.81 4.849 10.81 10.81s-4.85 10.81-10.81 10.81h-35.655c-4.142 0-7.5 3.358-7.5 7.5s3.358 7.5 7.5 7.5h18.037v11.291c0 4.142 3.358 7.5 7.5 7.5 4.143 0 7.5-3.358 7.5-7.5v-11.291h2.618c14.231 0 25.81-11.578 25.81-25.81s-11.578-25.81-25.81-25.81z" fill="#c99c56"/></g><g><g><circle cx="392.25" cy="126.732" fill="#fed402" r="71.522"/></g><g><path d="m355.048 126.732c0-33.583 23.152-61.747 54.362-69.435-5.499-1.355-11.243-2.087-17.16-2.087-39.5 0-71.522 32.022-71.522 71.522 0 39.501 32.022 71.522 71.522 71.522 5.917 0 11.661-.732 17.16-2.087-31.21-7.688-54.362-35.851-54.362-69.435z" fill="#fac600"/></g><g><path d="m392.25 205.754c-43.572 0-79.021-35.449-79.021-79.022s35.449-79.022 79.021-79.022c43.573 0 79.022 35.449 79.022 79.022s-35.449 79.022-79.022 79.022zm0-143.044c-35.302 0-64.021 28.72-64.021 64.022s28.72 64.022 64.021 64.022 64.022-28.72 64.022-64.022-28.72-64.022-64.022-64.022z" fill="#fee97d"/></g><path d="m400.47 119.232h-16.438c-4.065 0-7.373-3.307-7.373-7.373s3.308-7.373 7.373-7.373h28.963c4.143 0 7.5-3.358 7.5-7.5s-3.357-7.5-7.5-7.5h-13.245v-7.764c0-4.142-3.357-7.5-7.5-7.5s-7.5 3.358-7.5 7.5v7.764h-.719c-12.337 0-22.373 10.037-22.373 22.373s10.036 22.373 22.373 22.373h16.438c4.065 0 7.372 3.307 7.372 7.373s-3.307 7.373-7.372 7.373h-28.963c-4.143 0-7.5 3.358-7.5 7.5s3.357 7.5 7.5 7.5h13.243v7.764c0 4.142 3.357 7.5 7.5 7.5s7.5-3.358 7.5-7.5v-7.764h.72c12.336 0 22.372-10.037 22.372-22.373s-10.035-22.373-22.371-22.373z" fill="#c99c56"/></g><g><g><circle cx="119.549" cy="385.268" fill="#fed402" r="71.522"/></g><g><path d="m82.93 385.268c0-33.48 23.007-61.577 54.071-69.368-5.587-1.401-11.43-2.154-17.451-2.154-39.501 0-71.522 32.022-71.522 71.522 0 39.501 32.021 71.522 71.522 71.522 6.021 0 11.865-.753 17.451-2.154-31.064-7.791-54.071-35.889-54.071-69.368z" fill="#fac600"/></g><g><path d="m119.549 464.29c-43.573 0-79.022-35.449-79.022-79.022s35.449-79.022 79.022-79.022 79.022 35.449 79.022 79.022-35.449 79.022-79.022 79.022zm0-143.044c-35.302 0-64.022 28.72-64.022 64.022s28.72 64.022 64.022 64.022 64.022-28.72 64.022-64.022-28.72-64.022-64.022-64.022z" fill="#fee97d"/></g><path d="m127.768 377.768h-16.438c-4.065 0-7.373-3.307-7.373-7.373s3.307-7.373 7.373-7.373h28.963c4.142 0 7.5-3.358 7.5-7.5s-3.358-7.5-7.5-7.5h-13.244v-7.764c0-4.142-3.358-7.5-7.5-7.5s-7.5 3.358-7.5 7.5v7.764h-.719c-12.336 0-22.373 10.037-22.373 22.373s10.036 22.373 22.373 22.373h16.438c4.065 0 7.373 3.307 7.373 7.373s-3.307 7.373-7.373 7.373h-28.962c-4.142 0-7.5 3.358-7.5 7.5s3.358 7.5 7.5 7.5h13.243v7.764c0 4.142 3.358 7.5 7.5 7.5s7.5-3.358 7.5-7.5v-7.764h.719c12.336 0 22.373-10.037 22.373-22.373s-10.037-22.373-22.373-22.373z" fill="#c99c56"/></g></g><g><g><path d="m222.004 68.796h-107.139c-4.142 0-7.5-3.358-7.5-7.5s3.358-7.5 7.5-7.5h107.139c4.142 0 7.5 3.358 7.5 7.5s-3.358 7.5-7.5 7.5z" fill="#ef4424"/></g><g><path d="m384.772 458.204h-107.138c-4.143 0-7.5-3.358-7.5-7.5s3.357-7.5 7.5-7.5h107.139c4.143 0 7.5 3.358 7.5 7.5s-3.358 7.5-7.501 7.5z" fill="#01c0fa"/></g></g></g></svg>