<svg id="Icon_Set" enable-background="new 0 0 256 256" height="512" viewBox="0 0 256 256" width="512" xmlns="http://www.w3.org/2000/svg"><g><g><path d="m207.522 248.648h-159.044c-2.07 0-3.749-1.678-3.749-3.749v-210.495c0-2.07 1.678-3.749 3.749-3.749h159.045c2.07 0 3.749 1.678 3.749 3.749v210.495c-.001 2.07-1.679 3.749-3.75 3.749z" fill="#30b6ff"/><path d="m61.665 227.962v-176.622c0-2.07 1.678-3.749 3.749-3.749h125.172c2.07 0 3.749 1.678 3.749 3.749v176.622c0 2.07-1.678 3.749-3.749 3.749h-125.172c-2.07 0-3.749-1.678-3.749-3.749z" fill="#ffe2e2"/><path d="m79.034 231.709h-13.62c-2.07 0-3.75-1.68-3.75-3.75v-176.616c0-2.07 1.68-3.75 3.75-3.75h13.619c-2.07 0-3.75 1.68-3.75 3.75v176.617c.001 2.07 1.681 3.749 3.751 3.749z" fill="#ffefee"/><path d="m194.336 51.343v176.617c0 2.07-1.68 3.75-3.75 3.75h-13.619c2.07 0 3.75-1.68 3.75-3.75v-176.617c0-2.07-1.68-3.75-3.75-3.75h13.619c2.07 0 3.75 1.68 3.75 3.75z" fill="#ffcfcf"/><path d="m141.541 30.655c1.299-2.275 2.051-4.903 2.051-7.71 0-8.611-6.981-15.592-15.592-15.592s-15.592 6.981-15.592 15.592c0 2.808.752 5.435 2.051 7.71h-18.971v30.841h65.024v-30.841z" fill="#87828e"/></g><g fill="#5f266d"><path d="m207.52 26.65c-5.959 0-52.779 0-60.29 0 2.369-11.941-6.879-23.3-19.23-23.3-12.346 0-21.599 11.354-19.23 23.3-7.512 0-54.331 0-60.29 0-4.27 0-7.75 3.48-7.75 7.75v210.5c0 4.27 3.48 7.75 7.75 7.75h159.04c4.27 0 7.75-3.48 7.75-7.75v-210.5c0-4.27-3.48-7.75-7.75-7.75zm-93.06 8c3.082 0 4.987-3.331 3.47-5.98-4.398-7.725 1.218-17.32 10.07-17.32 8.851 0 14.467 9.593 10.07 17.32-1.516 2.648.386 5.98 3.47 5.98h14.97v22.85h-57.02c0-2.881 0-20.568 0-22.85zm-18.97 30.85h65.02c2.21 0 4-1.79 4-4v-9.91h25.82v176.12h-124.66v-176.12h25.82v9.91c0 2.21 1.79 4 4 4zm111.78 179.15h-158.54v-210h42.76v8.94h-26.08c-4.27 0-7.74 3.48-7.74 7.75v176.62c0 4.27 3.47 7.75 7.74 7.75h125.18c4.27 0 7.74-3.48 7.74-7.75v-176.62c0-4.27-3.47-7.75-7.74-7.75h-26.08v-8.94h42.76z"/><path d="m128 28.57c3.133 0 5.54-2.559 5.54-5.54 0-3.06-2.48-5.54-5.54-5.54s-5.54 2.48-5.54 5.54c0 2.976 2.402 5.54 5.54 5.54z"/><path d="m169.542 101.178h-9.737c-.019 0-.034-.016-.034-.034 0-2.209-1.791-4-4-4s-4 1.791-4 4c0 4.43 3.604 8.034 8.034 8.034h2.086v2.885c0 2.209 1.791 4 4 4s4-1.791 4-4v-2.903c5.609-.186 10.119-4.796 10.119-10.451 0-5.772-4.696-10.468-10.468-10.468h-7.303c-1.361 0-2.469-1.107-2.469-2.468s1.107-2.468 2.469-2.468l9.771.034c0 2.209 1.791 4 4 4s4-1.791 4-4c0-4.43-3.604-8.034-8.033-8.034h-2.086v-2.885c0-2.209-1.791-4-4-4s-4 1.791-4 4v2.903c-5.61.186-10.12 4.796-10.12 10.451 0 5.772 4.696 10.468 10.469 10.468h7.303c1.36 0 2.468 1.107 2.468 2.468s-1.109 2.468-2.469 2.468z"/><path d="m75.99 83.219c0 2.209 1.791 4 4 4h62.8c2.209 0 4-1.791 4-4s-1.791-4-4-4h-62.8c-2.209 0-4 1.791-4 4z"/><path d="m142.79 97.265h-62.8c-2.209 0-4 1.791-4 4s1.791 4 4 4h62.8c2.209 0 4-1.791 4-4s-1.791-4-4-4z"/><path d="m169.542 155.46h-9.737c-.019 0-.034-.016-.034-.034 0-2.209-1.791-4-4-4s-4 1.791-4 4c0 4.43 3.604 8.034 8.034 8.034h2.086v2.885c0 2.209 1.791 4 4 4s4-1.791 4-4v-2.903c5.609-.186 10.119-4.796 10.119-10.451 0-5.772-4.696-10.468-10.468-10.468h-7.303c-1.361 0-2.469-1.107-2.469-2.468s1.107-2.468 2.469-2.468l9.771.034c0 2.209 1.791 4 4 4s4-1.791 4-4c0-4.43-3.604-8.034-8.033-8.034h-2.086v-2.885c0-2.209-1.791-4-4-4s-4 1.791-4 4v2.903c-5.61.186-10.12 4.796-10.12 10.451 0 5.772 4.696 10.468 10.469 10.468h7.303c1.36 0 2.468 1.107 2.468 2.468s-1.109 2.468-2.469 2.468z"/><path d="m142.79 133.5h-62.8c-2.209 0-4 1.791-4 4s1.791 4 4 4h62.8c2.209 0 4-1.791 4-4s-1.791-4-4-4z"/><path d="m142.79 151.546h-62.8c-2.209 0-4 1.791-4 4s1.791 4 4 4h62.8c2.209 0 4-1.791 4-4s-1.791-4-4-4z"/><path d="m169.542 209.741h-9.737c-.019 0-.034-.016-.034-.034 0-2.209-1.791-4-4-4s-4 1.791-4 4c0 4.43 3.604 8.034 8.034 8.034h2.086v2.885c0 2.209 1.791 4 4 4s4-1.791 4-4v-2.903c5.609-.186 10.119-4.796 10.119-10.451 0-5.772-4.696-10.468-10.468-10.468h-7.303c-1.361 0-2.469-1.107-2.469-2.468s1.107-2.468 2.469-2.468l9.771.034c0 2.209 1.791 4 4 4s4-1.791 4-4c0-4.43-3.604-8.034-8.033-8.034h-2.086v-2.885c0-2.209-1.791-4-4-4s-4 1.791-4 4v2.903c-5.61.186-10.12 4.796-10.12 10.451 0 5.772 4.696 10.468 10.469 10.468h7.303c1.36 0 2.468 1.107 2.468 2.468s-1.109 2.468-2.469 2.468z"/><path d="m142.79 187.781h-62.8c-2.209 0-4 1.791-4 4s1.791 4 4 4h62.8c2.209 0 4-1.791 4-4s-1.791-4-4-4z"/><path d="m142.79 205.83h-9.8c-2.21 0-4 1.79-4 4s1.79 4 4 4h9.8c2.21 0 4-1.79 4-4s-1.79-4-4-4z"/><path d="m117.99 205.83h-38c-2.21 0-4 1.79-4 4s1.79 4 4 4h38c2.21 0 4-1.79 4-4s-1.79-4-4-4z"/></g></g></svg>