<svg id="Capa_1" enable-background="new 0 0 512 512" height="512" viewBox="0 0 512 512" width="512" xmlns="http://www.w3.org/2000/svg"><g><g><path d="m410.353 512h-385.741c-11.379 0-20.604-9.225-20.604-20.604v-319.571l7.227-12.915h419.721v332.487c0 11.378-9.224 20.603-20.603 20.603z" fill="#e8edf2"/></g><g><path d="m430.956 158.91h-55.363v61.258c0 17.622 14.337 31.959 31.959 31.959h23.404z" fill="#c5d3dd"/></g><g><path d="m312.185 406.707c13.799-19.159 21.94-42.653 21.94-68.014 0-3.396-.154-6.756-.44-10.079h-232.405c-.286 3.323-.44 6.683-.44 10.079 0 25.362 8.141 48.855 21.94 68.014-12.885 5.504-21.94 18.301-21.94 33.175v72.118h233.285v-72.118c0-14.874-9.055-27.671-21.94-33.175z" fill="#c5d3dd"/></g><g><path d="m366.057 374.285h-72.883c-4.267 0-7.726-3.459-7.726-7.726s3.459-7.726 7.726-7.726h72.883c4.267 0 7.726 3.459 7.726 7.726s-3.459 7.726-7.726 7.726z" fill="#90d8f9"/></g><g><path d="m136.978 374.285h-68.07c-4.267 0-7.726-3.459-7.726-7.726s3.459-7.726 7.726-7.726h68.07c4.267 0 7.726 3.459 7.726 7.726s-3.459 7.726-7.726 7.726z" fill="#90d8f9"/></g><g><path d="m366.057 407.428h-92.168c-4.267 0-7.726-3.459-7.726-7.726s3.459-7.726 7.726-7.726h92.168c4.267 0 7.726 3.459 7.726 7.726s-3.459 7.726-7.726 7.726z" fill="#90d8f9"/></g><g><path d="m171.097 407.428h-102.189c-4.267 0-7.726-3.459-7.726-7.726s3.459-7.726 7.726-7.726h102.19c4.267 0 7.726 3.459 7.726 7.726s-3.46 7.726-7.727 7.726z" fill="#90d8f9"/></g><g fill="#75cef9"><path d="m285.447 366.559c0 4.267 3.46 7.726 7.726 7.726h35.383c1.611-5.012 2.883-10.173 3.807-15.453h-39.19c-4.266 0-7.726 3.46-7.726 7.727z"/><path d="m144.705 366.559c0-4.267-3.46-7.726-7.726-7.726h-34.376c.924 5.28 2.196 10.441 3.806 15.453h30.57c4.266-.001 7.726-3.46 7.726-7.727z"/><path d="m321.214 391.975h-47.325c-4.267 0-7.726 3.459-7.726 7.726s3.46 7.726 7.726 7.726h39.827c-.507-.246-1.011-.499-1.531-.721 3.359-4.663 6.376-9.588 9.029-14.731z"/><path d="m178.823 399.702c0-4.267-3.459-7.726-7.726-7.726h-57.346c2.653 5.142 5.67 10.068 9.029 14.732-.52.222-1.023.475-1.531.721h49.848c4.267-.001 7.726-3.46 7.726-7.727z"/></g><g><path d="m31.058 491.396v-319.571l-5.73-12.915h-17.554l-3.766 12.915v319.571c0 11.379 9.225 20.604 20.604 20.604h27.05c-11.38 0-20.604-9.224-20.604-20.604z" fill="#c5d3dd"/></g><g><path d="m410.353 98.789h-385.741c-11.379 0-20.604 9.225-20.604 20.604v52.433h426.948v-52.433c0-11.38-9.224-20.604-20.603-20.604z" fill="#90d8f9"/></g><g><path d="m430.956 171.825v-52.433c0-11.379-9.224-20.604-20.604-20.604h-73.335l-4.162 6.821c-6.013 9.852-6.238 22.225-.59 32.29 5.649 10.065 16.328 16.317 27.869 16.317h15.459v17.608h55.363z" fill="#75cef9"/></g><g><path d="m51.662 98.789h-27.05c-11.379 0-20.604 9.225-20.604 20.604v52.433h27.05v-52.433c0-11.38 9.224-20.604 20.604-20.604z" fill="#75cef9"/></g><g><path d="m355.755 328.614h-276.545c-5.69 0-10.302-4.612-10.302-10.302v-96.015c0-5.69 4.612-10.302 10.302-10.302h276.545c5.69 0 10.302 4.612 10.302 10.302v96.015c0 5.689-4.613 10.302-10.302 10.302z" fill="#90d8f9"/></g><g><path d="m217.482 222.05c-60.921 0-111.074 46.948-116.202 106.563h232.404c-5.127-59.614-55.281-106.563-116.202-106.563z" fill="#75cef9"/></g><g><path d="m92.643 318.312v-96.015c0-5.69 4.612-10.302 10.302-10.302h-23.735c-5.69 0-10.302 4.612-10.302 10.302v96.015c0 5.69 4.612 10.302 10.302 10.302h23.735c-5.69 0-10.302-4.613-10.302-10.302z" fill="#75cef9"/></g><g><path d="m50.71 145.272h-7.912c-4.267 0-7.726-3.459-7.726-7.726s3.459-7.726 7.726-7.726h7.912c4.267 0 7.726 3.459 7.726 7.726 0 4.266-3.459 7.726-7.726 7.726z" fill="#75cef9"/></g><g><path d="m89.283 145.272h-7.912c-4.267 0-7.726-3.459-7.726-7.726s3.459-7.726 7.726-7.726h7.912c4.267 0 7.726 3.459 7.726 7.726 0 4.266-3.459 7.726-7.726 7.726z" fill="#75cef9"/></g><g><path d="m127.856 145.272h-7.912c-4.267 0-7.726-3.459-7.726-7.726s3.459-7.726 7.726-7.726h7.912c4.267 0 7.726 3.459 7.726 7.726.001 4.266-3.458 7.726-7.726 7.726z" fill="#75cef9"/></g><g><circle cx="217.482" cy="338.692" fill="#ffd064" r="90.888"/></g><g><path d="m144.977 338.692c0-47.093 35.817-85.82 81.696-90.428-3.023-.304-6.089-.46-9.192-.46-50.196 0-90.888 40.692-90.888 90.888s40.692 90.888 90.888 90.888c3.103 0 6.169-.157 9.192-.46-45.878-4.608-81.696-43.334-81.696-90.428z" fill="#ebb044"/></g><path d="m217.482 330.945c-.214 0-.428.009-.638.026-6.614-.333-11.892-5.819-11.892-12.514 0-6.909 5.622-12.53 12.53-12.53s12.53 5.621 12.53 12.53c0 4.267 3.459 7.726 7.726 7.726s7.726-3.459 7.726-7.726c0-12.749-8.574-23.527-20.257-26.889v-11.533c0-4.267-3.46-7.726-7.726-7.726-4.267 0-7.726 3.459-7.726 7.726v11.533c-11.682 3.362-20.257 14.14-20.257 26.889 0 15.43 12.553 27.983 27.983 27.983.214 0 .428-.009.638-.026 6.614.333 11.892 5.818 11.892 12.514 0 6.909-5.622 12.53-12.53 12.53s-12.53-5.621-12.53-12.53c0-4.267-3.459-7.726-7.726-7.726s-7.726 3.459-7.726 7.726c0 12.749 8.574 23.527 20.257 26.889v11.533c0 4.267 3.46 7.726 7.726 7.726 4.267 0 7.726-3.459 7.726-7.726v-11.533c11.682-3.362 20.257-14.14 20.257-26.889 0-15.43-12.553-27.983-27.983-27.983z" fill="#d68a1d"/><g><path d="m425.66 2.973-70.821 116.053c-2.523 4.135.453 9.437 5.296 9.437h35.008c3.427 0 6.205 2.778 6.205 6.205v85.5c0 3.427 2.778 6.205 6.205 6.205h46.808c3.427 0 6.205-2.778 6.205-6.205v-85.5c0-3.427 2.778-6.205 6.205-6.205h35.008c4.844 0 7.819-5.302 5.296-9.437l-70.822-116.053c-2.419-3.964-8.174-3.964-10.593 0z" fill="#dd636e"/></g><g><path d="m421.622 220.167v-85.5c0-3.427-2.778-6.205-6.204-6.205h-20.274c3.427 0 6.204 2.778 6.204 6.205v85.5c0 3.427 2.778 6.205 6.205 6.205h20.274c-3.427 0-6.205-2.778-6.205-6.205z" fill="#c63d4f"/></g><g><path d="m375.113 119.026 65.981-108.121-4.841-7.932c-2.418-3.963-8.174-3.963-10.593 0l-70.821 116.053c-2.523 4.135.453 9.437 5.296 9.437h20.274c-4.844 0-7.819-5.302-5.296-9.437z" fill="#c63d4f"/></g><path d="m298.069 429.58h-161.173c-5.69 0-10.302 4.612-10.302 10.302v72.118h181.776v-72.118c0-5.689-4.612-10.302-10.301-10.302z" fill="#ffd064"/><path d="m308.37 470.79v-16.751h-161.52v-14.157c0-5.69 4.612-10.302 10.302-10.302h-20.257c-5.69 0-10.302 4.612-10.302 10.302v72.118h181.777v-16.751h-161.52v-24.459z" fill="#ebb044"/></g></svg>