<svg height="512pt" viewBox="-50 0 512 512" width="512pt" xmlns="http://www.w3.org/2000/svg"><path d="m158.179688 149.917969h-66.710938c-50.515625 0-91.46875 40.953125-91.46875 91.46875v169.585937c0 13.355469 10.828125 24.183594 24.1875 24.183594h201.277344c13.355468 0 24.183594-10.828125 24.183594-24.183594v-169.585937c0-50.515625-40.949219-91.46875-91.46875-91.46875zm0 0" fill="#50cbd8"/><path d="m304.9375 191.828125c-44.265625.429687-79.617188 37.164063-79.617188 81.433594v64.925781c0 7.988281 6.472657 14.460938 14.457032 14.460938 7.988281 0 14.460937-6.476563 14.460937-14.460938v-65.167969c0-28.257812 22.4375-51.835937 50.691407-52.269531 28.757812-.4375 52.292968 22.828125 52.292968 51.488281v65.949219c0 7.988281 6.472656 14.460938 14.460938 14.460938 7.984375 0 14.457031-6.476563 14.457031-14.460938v-65.949219c0-44.605469-36.503906-80.839843-81.203125-80.410156zm0 0" fill="#bec3d2"/><path d="m304.9375 191.828125c-44.269531.429687-79.617188 37.164063-79.617188 81.433594v64.925781c0 7.988281 6.472657 14.460938 14.457032 14.460938 7.988281 0 14.460937-6.476563 14.460937-14.460938v-65.167969c0-28.257812 22.4375-51.835937 50.691407-52.269531.269531-.003906.535156.007812.800781.007812v-28.914062c-.265625 0-.527344-.015625-.792969-.015625zm0 0" fill="#ced2e1"/><path d="m380.808594 512h-150.15625c-16.6875 0-30.21875-13.53125-30.21875-30.21875v-119.792969c0-27.089843 21.960937-49.046875 49.050781-49.046875h112.492187c27.089844 0 49.050782 21.957032 49.050782 49.046875v119.792969c0 16.6875-13.53125 30.21875-30.21875 30.21875zm0 0" fill="#f2cc40"/><path d="m249.484375 312.941406c-27.089844 0-49.050781 21.957032-49.050781 49.046875v119.792969c0 16.691406 13.53125 30.21875 30.21875 30.21875h75.078125v-199.058594zm0 0" fill="#fbe25f"/><path d="m305.730469 373.890625c-8.285157 0-15 6.71875-15 15v39.882813c0 8.285156 6.714843 15 15 15 8.285156 0 15-6.714844 15-15v-39.882813c0-8.28125-6.714844-15-15-15zm0 0" fill="#2b608e"/><path d="m290.730469 388.890625v39.882813c0 8.285156 6.714843 15 15 15v-69.882813c-8.285157 0-15 6.71875-15 15zm0 0" fill="#2b76ae"/><path d="m91.46875 149.917969c-50.515625 0-91.46875 40.953125-91.46875 91.46875v169.585937c0 13.355469 10.828125 24.183594 24.1875 24.183594h100.636719v-285.238281zm0 0" fill="#77dced"/><path d="m209.683594 84.859375c0 46.867187-37.992188 84.859375-84.859375 84.859375-46.867188 0-84.859375-37.992188-84.859375-84.859375s37.992187-84.859375 84.859375-84.859375c46.867187 0 84.859375 37.992188 84.859375 84.859375zm0 0" fill="#77dced"/><path d="m39.964844 84.859375c0 46.867187 37.996094 84.859375 84.859375 84.859375v-169.71875c-46.867188 0-84.859375 37.992188-84.859375 84.859375zm0 0" fill="#95e6f9"/></svg>