<svg id="Capa_1" enable-background="new 0 0 512 512" height="512" viewBox="0 0 512 512" width="512" xmlns="http://www.w3.org/2000/svg"><g><circle cx="256" cy="256" fill="#62a4fb" r="256"/><path d="m410.608 51.961c32.602 42.959 51.961 96.519 51.961 154.608 0 141.385-114.615 256-256 256-58.089 0-111.649-19.359-154.608-51.961 46.75 61.6 120.743 101.392 204.039 101.392 141.385 0 256-114.615 256-256 0-83.296-39.792-157.289-101.392-204.039z" fill="#5392f9"/><circle cx="256" cy="256" fill="#4071f7" r="208.13"/><g fill="#f1f6f7"><path d="m407.881 324.452-25.573-133.81c-.013-.07-.027-.14-.042-.211-1.884-9.247-9.78-16.077-19.203-16.609-9.419-.538-18.038 5.365-20.951 14.342-.066.203-.128.407-.186.611l-24.114 84.592-25.01-84.77c-.062-.21-.128-.419-.198-.627-3.006-8.95-11.682-14.757-21.104-14.127-9.42.632-17.244 7.548-19.027 16.819-.013.067-.025.133-.037.2l-24.144 133.769c-1.736 9.615 4.652 18.817 14.267 20.552 9.613 1.736 18.816-4.652 20.552-14.267l13.205-73.16 21.827 73.981c.062.21.128.419.198.627 2.852 8.489 10.763 14.173 19.71 14.173.036 0 .073 0 .108-.001 8.991-.046 16.897-5.823 19.672-14.375.066-.203.128-.406.186-.611l21.071-73.916 14.039 73.459c1.834 9.597 11.102 15.889 20.698 14.056 9.597-1.833 15.89-11.1 14.056-20.697z"/><path d="m197.357 173.789h-75.861c-9.77 0-17.691 7.921-17.691 17.691s7.921 17.691 17.691 17.691h20.086v119.675c0 9.77 7.921 17.691 17.691 17.691s17.691-7.921 17.691-17.691v-119.675h20.393c9.77 0 17.691-7.921 17.691-17.691s-7.92-17.691-17.691-17.691z"/></g></g></svg>