<svg id="Layer_3" enable-background="new 0 0 64 64" height="512" viewBox="0 0 64 64" width="512" xmlns="http://www.w3.org/2000/svg"><g><g><path d="m32 8-25 15.741v38.259h50v-38.259z" fill="#c7e2fb"/></g><path d="m32 8-25 15.741v28.237c.334.006.665.022 1 .022 21.699 0 39.717-13.748 43.328-31.83z" fill="#ebf7fe"/><path d="m13 32h38v30h-38z" fill="#c1c8d1"/><path d="m41 52h8v6h-8z" fill="#976947"/><g><path d="m44 52h2v3h-2z" fill="#e1c9b1"/></g><path d="m49 52h8v6h-8z" fill="#cda57d"/><g><path d="m52 52h2v3h-2z" fill="#e1c9b1"/></g><path d="m45 46h8v6h-8z" fill="#c18e5c"/><path d="m2 21 30-19 30 19-3 4-27-17-27 17z" fill="#88929f"/><g><path d="m60 59h-19c-.553 0-1-.447-1-1v-13h-3v-2h4c.553 0 1 .447 1 1v13h18z" fill="#88929f"/></g><g><path d="m48 46h2v3h-2z" fill="#e1c9b1"/></g><path d="m13 44h8v6h-8z" fill="#c18e5c"/><g><path d="m16 44h2v3h-2z" fill="#e1c9b1"/></g><path d="m13 50h8v6h-8z" fill="#cda57d"/><g><path d="m16 50h2v3h-2z" fill="#e1c9b1"/></g><path d="m13 56h8v6h-8z" fill="#c18e5c"/><g><path d="m16 56h2v3h-2z" fill="#e1c9b1"/></g><path d="m21 56h8v6h-8z" fill="#cda57d"/><g><path d="m24 56h2v3h-2z" fill="#e1c9b1"/></g><path d="m29 56h8v6h-8z" fill="#c18e5c"/><g><path d="m32 56h2v3h-2z" fill="#e1c9b1"/></g><path d="m21 50h8v6h-8z" fill="#976947"/><g><path d="m24 50h2v3h-2z" fill="#e1c9b1"/></g><g><path d="m1 61h62v2h-62z" fill="#88929f"/></g><path d="m20 22h24v6h-24z" fill="#c1c8d1"/><g><path d="m13 35h38v2h-38z" fill="#88929f"/></g><g><path d="m13 39h38v2h-38z" fill="#88929f"/></g><g fill="#a0a8b2"><circle cx="45" cy="60" r="2"/><circle cx="55" cy="60" r="2"/></g></g></svg>