<svg id="Capa_1" enable-background="new 0 0 512 512" height="512" viewBox="0 0 512 512" width="512" xmlns="http://www.w3.org/2000/svg"><g><g><g><path d="m451 150h-120v-60h-150v60h-120v-150h390z" fill="#dfe7f4"/></g></g><path d="m256 90h75v60h120v-150h-195z" fill="#c7cfe1"/><g><path d="m361 75v181.8l-27.525 45.788-45.675 27.412h-63.6l-48.401-29.922-24.799-42.978v-182.1h76.8l28.2 60 28.2-60z" fill="#8cd96b"/></g><path d="m287.8 330 45.676-27.413 27.524-45.787v-181.8h-76.8l-28.2 60v195z" fill="#5ab267"/><path d="m284.2 75h-56.4c-1.199 9.3-1.8 19.499-1.8 30 0 49.799 13.5 90 30 90s30-40.201 30-90c0-10.501-.601-20.7-1.8-30z" fill="#5ab267"/><path d="m256 75v120c16.5 0 30-40.201 30-90 0-10.501-.601-20.7-1.8-30z" fill="#288c64"/><g id="Money_Withdraw_1_"><g><path d="m256 512-96.211-92h51.211v-60h90v60h51.211z" fill="#fee274"/></g></g><path d="m224.2 330h-73.2v-72.9c44.7-11.1 84.3 28.2 73.2 72.9z" fill="#5ab267"/><path d="m361 256.8v73.2h-73.2c-10.8-44.7 28.2-84 73.2-73.2z" fill="#288c64"/><g><path d="m121 60h270v30h-270z" fill="#474f54"/></g><path d="m301 420v-60h-45v152l96.211-92z" fill="#fabe2c"/><path d="m256 60h135v30h-135z" fill="#32393f"/></g></svg>