<svg height="512" viewBox="0 0 52 58" width="512" xmlns="http://www.w3.org/2000/svg"><g id="Page-1" fill="none" fill-rule="evenodd"><g id="022---Tape-Measure" fill-rule="nonzero"><path id="Shape" d="m45.9 5.01c-3.27-2.99-7.49-3.86-11.76-4.41-3.3652166-.3997179-6.7511274-.60006766-10.14-.6v.01c-.33-.01-.66-.01-1-.01-12.7 0-23 4.92-23 11v16c0 2.3 1.47 4.44 4 6.2.63966085.4463713 1.30774453.8505619 2 1.21 1.28567978.6618203 2.62350277 1.2170169 4 1.66.64.21 1.31.41 2 .59 1.6450048.4216131 3.3149955.7389114 5 .95.45.06.91.11 1.38.16-1.98 1.45-3.84 2.78-5.47 3.94-2.4 1.7-4.31 3.02-5.43 3.79-.25788716.180861-.41548711.472657-.42532564.7874898-.00983852.3148328.12923446.6158999.37532564.8125102l13.35 10.68c.3551736.2790041.8515424.2912098 1.22.03 2.16-1.57 4.29-3.2166667 6.39-4.94 1.8-1.4666667 3.56-2.9866667 5.28-4.56.5-.45.99-.9 1.48-1.36 1.4-1.31 2.76-2.6466667 4.08-4.01.47-.47.94-.96 1.38-1.44 1.05-1.1 2.0633333-2.2133333 3.04-3.34.23-.27.47-.54.7-.81.44-.5.88-1.02 1.31-1.54 1.1569549-1.3625403 2.2194307-2.8025626 3.18-4.31.4-.62.76-1.25 1.1-1.9.8824096-1.6703982 1.470987-3.4801046 1.74-5.35.88-6.54-.74-14.64-5.78-19.24z" fill="#3b97d3"/><path id="Shape" d="m22.86 5-.79 10.98c-6.2-.21-11.07-2.58-11.07-5.48 0-3.02 5.29-5.46 11.86-5.5z" fill="#2980ba"/><path id="Shape" d="m29.75 5.08-.51 10.12c-2.0326413.5557262-4.1329077.8249911-6.24.8-.31 0-.62-.01-.93-.02l.79-10.98c.0343744-.51255981.2938671-.9836147.708739-1.28656764.4148718-.30295295.9425651-.40672689 1.441261-.28343236 1.6292641.39669887 3.2165782.94924492 4.74 1.65z" fill="#95a5a5"/><path id="Shape" d="m34.99 10.7c-.0130345.342723-.0946424.6793553-.24.99-.82 1.72-2.99 2.69-4.69 3.26-.27.09-.54.17-.82.25l.51-10.12c.7417096.33703555 1.4541567.73506935 2.13 1.19 1.37.93 3.19 2.64 3.11 4.43z" fill="#2980ba"/><path id="Shape" d="m45.66 12.88c-.2481898.6732209-.5990025 1.3040091-1.04 1.87.407158-.5877159.7555027-1.2140664 1.04-1.87z" fill="#f3d55b"/><path id="Shape" d="m44.6 14.78c-4.06 6.07-16.11 15.56-25.6 22.53-.21.16-.41.31-.62.46-.47-.05-.93-.1-1.38-.16-1.6850045-.2110886-3.3549952-.5283869-5-.95-.69-.18-1.36-.38-2-.59-1.37649723-.4429831-2.71432022-.9981797-4-1.66-.69225547-.3594381-1.36033915-.7636287-2-1.21-2.53-1.76-4-3.9-4-6.2v-16c0 6.08 10.3 11 23 11 9.92 0 18.38-3 21.6-7.22z" fill="#2980ba"/><path id="Shape" d="m51.68 24.25c-.269013 1.8698954-.8575904 3.6796018-1.74 5.35-.34.65-.7 1.28-1.1 1.9-.9605693 1.5074374-2.0230451 2.9474597-3.18 4.31-.43.52-.87 1.04-1.31 1.54-.23.27-.47.54-.7.81-.98 1.1333333-1.9933333 2.2466667-3.04 3.34-.44.48-.91.97-1.38 1.44-1.32 1.36-2.68 2.6966667-4.08 4.01-.49.46-.98.91-1.48 1.36-1.72 1.57-3.48 3.09-5.28 4.56-1.45-1.31-.54-2.82-2.35-4.12-1.93-1.4-3.1.23-5.03-1.17s-.77-3.02-2.7-4.42c-2.06-1.47-3.24.45-5.4-1.45 1.63-1.16 3.49-2.49 5.47-3.94 9.58-7.01 22.07-16.79 26.22-22.99.01-.01.02-.02.02-.03.4409975-.5659909.7918102-1.1967791 1.04-1.87.0221824-.0781536.0488943-.1549501.08-.23.2176845-.5212048.3068574-1.0871099.26-1.65 0-5.92-9.76-10.74-22-10.99v-.01c3.3888726-.00006766 6.7747834.2002821 10.14.6 4.27.55 8.49 1.42 11.76 4.41 5.04 4.6 6.66 12.7 5.78 19.24z" fill="#84b5cb"/><path id="Shape" d="m28.39 52.87c-2.1 1.72-4.23 3.3666667-6.39 4.94-.3684576.2612098-.8648264.2490041-1.22-.03l-13.35-10.68c-.24609118-.1966103-.38516416-.4976774-.37532564-.8125102.00983853-.3148328.16743848-.6066288.42532564-.7874898 1.12-.77 3.03-2.09 5.43-3.79 2.16 1.9 3.34-.02 5.4 1.45 1.93 1.4.76 3.02 2.7 4.42s3.1-.23 5.03 1.17c1.81 1.3.9 2.81 2.35 4.12z" fill="#7f8c8d"/><path id="Shape" d="m34.98 10.69c.0046299.0035996.0073381.0091355.0073381.015s-.0027082.0114004-.0073381.015" fill="#f3d55b"/><path id="Shape" d="m26 12c-.5522847 0-1-.4477153-1-1v-1c0-.55228475.4477153-1 1-1s1 .44771525 1 1v1c0 .5522847-.4477153 1-1 1z" fill="#393f4a"/><path id="Shape" d="m20 53c-.2271603.0001065-.4475878-.0771313-.625-.219l-5-4c-.4313344-.345178-.5011779-.9746656-.156-1.406.345178-.4313344.9746656-.5011779 1.406-.156l5 4c.3317791.2653089.4597225.7112818.3190546 1.1121292-.140668.4008475-.5192416.6690701-.9440546.6688708z" fill="#393f4a"/><g fill="#3f5c6c"><path id="Shape" d="m6 27v7.41c-.69225547-.3594381-1.36033915-.7636287-2-1.21v-6.2c0-.5522847.44771525-1 1-1s1 .4477153 1 1z"/><path id="Shape" d="m12 30v6.66c-.69-.18-1.36-.38-2-.59v-6.07c0-.5522847.4477153-1 1-1s1 .4477153 1 1z"/><path id="Shape" d="m19 31v6.31c-.21.16-.41.31-.62.46-.47-.05-.93-.1-1.38-.16v-6.61c0-.5522847.4477153-1 1-1s1 .4477153 1 1z"/><path id="Shape" d="m35.15 46.95c-.49.46-.98.91-1.48 1.36l-5.32-4.55c-.2715219-.2322226-.3985291-.5916604-.3331794-.9429165.0653498-.3512562.3131284-.6409666.6500001-.7600001.3368716-.1190335.7116575-.0493061.9831793.1829166z"/><path id="Shape" d="m40.61 41.5c-.44.48-.91.97-1.38 1.44l-4.88-4.18c-.2715218-.2322226-.3985291-.5916604-.3331793-.9429165s.3131284-.6409665.65-.76.7116575-.0493061.9831793.1829165z"/><path id="Shape" d="m45.66 35.81c-.43.52-.87 1.04-1.31 1.54l-3.64-4.16c-.335802-.416915-.2837133-1.024335.1181682-1.3779907s1.0109946-.3280933 1.3818318.0579907z"/><path id="Shape" d="m49.94 29.6c-.34.65-.7 1.28-1.1 1.9l-2.61-3.67c-.2458559-.2871216-.3088036-.6883341-.1626914-1.036953.1461123-.348619.4763105-.5850572.8534132-.611086s.7366542.1628007.9292782.488039z"/></g></g></g></svg>