<svg id="Layer_3" enable-background="new 0 0 64 64" height="512" viewBox="0 0 64 64" width="512" xmlns="http://www.w3.org/2000/svg"><g><g><path d="m50 56h-32v2c0 2.209-1.791 4-4 4-2.209 0-4-1.791-4-4v-52c0-2.209-1.791-4-4-4h37c3.866 0 7 3.134 7 7z" fill="#c7e2fc"/></g><g><path d="m44 8c0-2.025-.123-4.014-.343-5.967-.217-.02-.435-.033-.657-.033h-37c2.209 0 4 1.791 4 4v45.886c18.991-1.551 34-20.6 34-43.886z" fill="#ddeefd"/></g><g><path d="m60 52h-30c-1.105 0-2-.895-2-2v-18c0-1.105.895-2 2-2h30c1.105 0 2 .895 2 2v18c0 1.105-.895 2-2 2z" fill="#96cc7f"/></g><g><path d="m28 32v15.456c1.76.354 3.602.544 5.5.544 12.426 0 22.5-8.059 22.5-18h-26c-1.105 0-2 .895-2 2z" fill="#c0e0b2"/></g><g><path d="m55 42c-.772 0-1.468.3-2 .779-.532-.479-1.228-.779-2-.779-1.657 0-3 1.343-3 3s1.343 3 3 3c.772 0 1.468-.3 2-.779.532.479 1.228.779 2 .779 1.657 0 3-1.343 3-3s-1.343-3-3-3z" fill="#ebf7fe"/></g><g><path d="m28 34h34v4h-34z" fill="#ebf7fe"/></g><g><g><path d="m50 56h-32v2c0 2.209-1.791 4-4 4h36c2.209 0 4-1.791 4-4v-2z" fill="#95aabd"/></g></g><g><path d="m10 14h-8v-8c0-2.209 1.791-4 4-4 2.209 0 4 1.791 4 4z" fill="#95aabd"/></g><g><path d="m50 63h-36c-2.757 0-5-2.243-5-5v-43h-7c-.552 0-1-.448-1-1v-8c0-2.757 2.243-5 5-5s5 2.243 5 5v52c0 1.654 1.346 3 3 3s3-1.346 3-3v-2c0-.552.448-1 1-1h36c.552 0 1 .448 1 1v2c0 2.757-2.243 5-5 5zm-32.002-2h32.002c1.654 0 3-1.346 3-3v-1h-34v1c0 1.125-.374 2.164-1.002 3zm-14.998-48h6v-7c0-1.654-1.346-3-3-3s-3 1.346-3 3z"/></g><g><path d="m49 52h2v4h-2z"/></g><g><path d="m51 30h-2v-20c0-3.86-3.14-7-7-7h-36v-2h36c4.962 0 9 4.038 9 9z"/></g><g><path d="m60 53h-30c-1.654 0-3-1.346-3-3v-18c0-1.654 1.346-3 3-3h30c1.654 0 3 1.346 3 3v18c0 1.654-1.346 3-3 3zm-30-22c-.551 0-1 .449-1 1v18c0 .551.449 1 1 1h30c.551 0 1-.449 1-1v-18c0-.551-.449-1-1-1z"/></g><g><path d="m28 33h34v2h-34z"/></g><g><path d="m28 37h34v2h-34z"/></g><g><path d="m55 49c-.705 0-1.393-.19-2-.545-.607.355-1.295.545-2 .545-2.206 0-4-1.794-4-4s1.794-4 4-4c.705 0 1.393.19 2 .545.607-.355 1.295-.545 2-.545 2.206 0 4 1.794 4 4s-1.794 4-4 4zm-2-2.778c.239 0 .479.085.669.257.265.237.71.521 1.331.521 1.103 0 2-.897 2-2s-.897-2-2-2c-.621 0-1.066.284-1.331.521-.38.343-.958.343-1.338 0-.265-.237-.71-.521-1.331-.521-1.103 0-2 .897-2 2s.897 2 2 2c.621 0 1.066-.284 1.331-.521.19-.172.43-.257.669-.257z"/></g><g><path d="m19 21c-2.206 0-4-1.794-4-4h2c0 1.103.897 2 2 2s2-.897 2-2-.897-2-2-2c-2.206 0-4-1.794-4-4s1.794-4 4-4 4 1.794 4 4h-2c0-1.103-.897-2-2-2s-2 .897-2 2 .897 2 2 2c2.206 0 4 1.794 4 4s-1.794 4-4 4z"/></g><g><path d="m18 5h2v3h-2z"/></g><g><path d="m18 20h2v3h-2z"/></g><g><path d="m26 9h18v2h-18z"/></g><g><path d="m26 13h18v2h-18z"/></g><g><path d="m26 17h18v2h-18z"/></g><g><path d="m26 21h18v2h-18z"/></g><g><path d="m26 25h18v2h-18z"/></g><g><path d="m13 29h12v2h-12z"/></g><g><path d="m13 33h12v2h-12z"/></g><g><path d="m13 37h12v2h-12z"/></g><g><path d="m13 41h12v2h-12z"/></g><g><path d="m13 45h12v2h-12z"/></g><g><path d="m13 49h12v2h-12z"/></g></g></svg>