<svg id="Capa_1" enable-background="new 0 0 512 512" height="512" viewBox="0 0 512 512" width="512" xmlns="http://www.w3.org/2000/svg"><g><path d="m497 30h-482c-8.284 0-15 6.716-15 15v422c0 8.284 6.716 15 15 15h482c8.284 0 15-6.716 15-15v-422c0-8.284-6.716-15-15-15z" fill="#fff5f5"/><path d="m512 45v422c0 8.28-6.72 15-15 15h-241v-452h241c8.28 0 15 6.72 15 15z" fill="#ece6f2"/><g fill="#08507c"><path d="m135.95 241c8.284 0 15-6.716 15-15v-120c0-8.284-6.716-15-15-15s-15 6.716-15 15v120c0 8.284 6.716 15 15 15z"/><path d="m195.95 241c8.284 0 15-6.716 15-15v-120c0-8.284-6.716-15-15-15s-15 6.716-15 15v120c0 8.284 6.716 15 15 15z"/><path d="m271 106c0-8.284-6.716-15-15-15s-15 6.716-15 15v180c0 8.284 6.716 15 15 15s15-6.716 15-15z"/></g><path d="m271 106v180c0 8.28-6.72 15-15 15v-210c8.28 0 15 6.72 15 15z" fill="#044260"/><path d="m315.95 241c8.284 0 15-6.716 15-15v-120c0-8.284-6.716-15-15-15s-15 6.716-15 15v120c0 8.284 6.716 15 15 15z" fill="#044260"/><path d="m375.95 241c8.284 0 15-6.716 15-15v-120c0-8.284-6.716-15-15-15s-15 6.716-15 15v120c0 8.284 6.716 15 15 15z" fill="#044260"/><circle cx="196.05" cy="286" fill="#08507c" r="15"/><circle cx="136.05" cy="286" fill="#08507c" r="15"/><circle cx="316.05" cy="286" fill="#044260" r="15"/><circle cx="376.05" cy="286" fill="#044260" r="15"/><path d="m76 91c-8.284 0-15 6.716-15 15v180c0 8.284 6.716 15 15 15s15-6.716 15-15v-180c0-8.284-6.716-15-15-15z" fill="#08507c"/><path d="m435.95 301c8.284 0 15-6.716 15-15v-180c0-8.284-6.716-15-15-15s-15 6.716-15 15v180c0 8.284 6.716 15 15 15z" fill="#044260"/><path d="m76 331c-8.284 0-15 6.716-15 15v60c0 8.284 6.716 15 15 15s15-6.716 15-15v-60c0-8.284-6.716-15-15-15z" fill="#7ad9ff"/><path d="m226.05 331c-8.284 0-15 6.716-15 15v60c0 8.284 6.716 15 15 15s15-6.716 15-15v-60c0-8.284-6.716-15-15-15z" fill="#7ad9ff"/><path d="m345.9 331h-59.9c-8.284 0-15 6.716-15 15v60c0 8.284 6.716 15 15 15h59.9c8.284 0 15-6.716 15-15v-60c0-8.284-6.715-15-15-15zm-15 60h-29.9v-30h29.9z" fill="#5abeff"/><path d="m436.05 331h-30c-8.284 0-15 6.716-15 15s6.716 15 15 15h14.975l-.074 44.975c-.014 8.285 6.69 15.012 14.976 15.025h.025c8.271 0 14.985-6.699 14.999-14.975l.1-60c.013-8.287-6.707-15.025-15.001-15.025z" fill="#5abeff"/><path d="m166.05 331h-30c-8.284 0-15 6.716-15 15s6.716 15 15 15h15v45c0 8.284 6.716 15 15 15s15-6.716 15-15v-60c0-8.284-6.716-15-15-15z" fill="#7ad9ff"/></g></svg>